<mxfile host="Electron" agent="Mozilla/5.0 (Windows NT 10.0; Win64; x64) AppleWebKit/537.36 (KHTML, like Gecko) draw.io/24.7.8 Chrome/128.0.6613.36 Electron/32.0.1 Safari/537.36" version="24.7.8">
  <diagram name="Page-1" id="LP3SlvVQqhblJUr_1U4U">
    <mxGraphModel dx="814" dy="607" grid="1" gridSize="10" guides="1" tooltips="1" connect="1" arrows="1" fold="1" page="1" pageScale="1" pageWidth="850" pageHeight="1100" math="0" shadow="0">
      <root>
        <mxCell id="0" />
        <mxCell id="1" parent="0" />
        <mxCell id="ZTARkKmLhcdW2PI3qZX4-7" value="Schul-Netz&lt;div&gt;192.168.7.0/24&lt;/div&gt;" style="rounded=0;whiteSpace=wrap;html=1;verticalAlign=top;" vertex="1" parent="1">
          <mxGeometry y="120" width="290" height="280" as="geometry" />
        </mxCell>
        <mxCell id="ZTARkKmLhcdW2PI3qZX4-6" value="" style="rounded=0;whiteSpace=wrap;html=1;" vertex="1" parent="1">
          <mxGeometry x="10" y="160" width="180" height="230" as="geometry" />
        </mxCell>
        <mxCell id="ZTARkKmLhcdW2PI3qZX4-3" value="Lehrer-PC&lt;br&gt;VPN-Client&lt;div&gt;RDP-Client&lt;/div&gt;" style="fontColor=#0066CC;verticalAlign=top;verticalLabelPosition=middle;labelPosition=center;align=center;html=1;outlineConnect=0;fillColor=#CCCCCC;strokeColor=#6881B3;gradientColor=none;gradientDirection=north;strokeWidth=2;shape=mxgraph.networks.laptop;" vertex="1" parent="1">
          <mxGeometry x="37" y="278.75" width="100" height="75" as="geometry" />
        </mxCell>
        <mxCell id="ZTARkKmLhcdW2PI3qZX4-4" value="IP-Addresse: 192.168.70.1&lt;div&gt;VPN-IP: 192.168.179.202&lt;/div&gt;" style="text;html=1;align=left;verticalAlign=middle;whiteSpace=wrap;rounded=0;" vertex="1" parent="1">
          <mxGeometry x="20" y="358.75" width="160" height="25" as="geometry" />
        </mxCell>
        <mxCell id="ZTARkKmLhcdW2PI3qZX4-5" value="Raum 2.4.01&lt;div&gt;Netz-IP: 192.168.70.0/24&lt;/div&gt;" style="text;html=1;align=left;verticalAlign=middle;whiteSpace=wrap;rounded=0;" vertex="1" parent="1">
          <mxGeometry x="28.5" y="170" width="160" height="40" as="geometry" />
        </mxCell>
        <mxCell id="ZTARkKmLhcdW2PI3qZX4-8" value="LAN Heimnetz&lt;div&gt;192.168.178.0/24&lt;/div&gt;" style="rounded=0;whiteSpace=wrap;html=1;verticalAlign=top;" vertex="1" parent="1">
          <mxGeometry x="630" y="158.75" width="210" height="241.25" as="geometry" />
        </mxCell>
        <mxCell id="ZTARkKmLhcdW2PI3qZX4-10" value="Heim-PC&lt;div&gt;RDP-Server&lt;/div&gt;" style="fontColor=#0066CC;verticalAlign=top;verticalLabelPosition=middle;labelPosition=center;align=center;html=1;outlineConnect=0;fillColor=#CCCCCC;strokeColor=#6881B3;gradientColor=none;gradientDirection=north;strokeWidth=2;shape=mxgraph.networks.laptop;" vertex="1" parent="1">
          <mxGeometry x="710" y="235.63" width="100" height="75" as="geometry" />
        </mxCell>
        <mxCell id="ZTARkKmLhcdW2PI3qZX4-11" value="IP-Addresse: 192.168.178.101" style="text;html=1;align=left;verticalAlign=middle;whiteSpace=wrap;rounded=0;" vertex="1" parent="1">
          <mxGeometry x="650" y="317.5" width="174.25" height="25" as="geometry" />
        </mxCell>
        <mxCell id="ZTARkKmLhcdW2PI3qZX4-13" value="&lt;span style=&quot;background-color: rgb(255, 255, 255);&quot;&gt;Fritz!Box&lt;/span&gt;&lt;div&gt;&lt;span style=&quot;background-color: rgb(255, 255, 255);&quot;&gt;Router&lt;/span&gt;&lt;/div&gt;&lt;div&gt;&lt;span style=&quot;background-color: rgb(255, 255, 255);&quot;&gt;NAT-Server&lt;br&gt;&lt;/span&gt;&lt;div&gt;&lt;span style=&quot;background-color: rgb(255, 255, 255);&quot;&gt;VPN-Server&lt;/span&gt;&lt;/div&gt;&lt;/div&gt;&lt;div&gt;&lt;span style=&quot;background-color: rgb(255, 255, 255);&quot;&gt;89.245.51.101&lt;/span&gt;&lt;/div&gt;" style="sketch=0;points=[[0.5,0,0],[1,0.5,0],[0.5,1,0],[0,0.5,0],[0.145,0.145,0],[0.8555,0.145,0],[0.855,0.8555,0],[0.145,0.855,0]];verticalLabelPosition=top;html=1;verticalAlign=bottom;aspect=fixed;align=center;pointerEvents=1;shape=mxgraph.cisco19.rect;prIcon=router;fillColor=#FAFAFA;strokeColor=#005073;labelPosition=center;" vertex="1" parent="1">
          <mxGeometry x="600" y="248.13" width="50" height="50" as="geometry" />
        </mxCell>
        <mxCell id="ZTARkKmLhcdW2PI3qZX4-14" style="edgeStyle=orthogonalEdgeStyle;rounded=0;orthogonalLoop=1;jettySize=auto;html=1;exitX=0.15;exitY=0.5;exitDx=0;exitDy=0;exitPerimeter=0;entryX=1;entryY=0.5;entryDx=0;entryDy=0;entryPerimeter=0;endArrow=none;endFill=0;" edge="1" parent="1" source="ZTARkKmLhcdW2PI3qZX4-10" target="ZTARkKmLhcdW2PI3qZX4-13">
          <mxGeometry relative="1" as="geometry" />
        </mxCell>
        <mxCell id="ZTARkKmLhcdW2PI3qZX4-15" value="" style="sketch=0;points=[[0.5,0,0],[1,0.5,0],[0.5,1,0],[0,0.5,0],[0.145,0.145,0],[0.8555,0.145,0],[0.855,0.8555,0],[0.145,0.855,0]];verticalLabelPosition=bottom;html=1;verticalAlign=top;aspect=fixed;align=center;pointerEvents=1;shape=mxgraph.cisco19.rect;prIcon=router;fillColor=#FAFAFA;strokeColor=#005073;" vertex="1" parent="1">
          <mxGeometry x="163" y="252" width="50" height="50" as="geometry" />
        </mxCell>
        <mxCell id="ZTARkKmLhcdW2PI3qZX4-16" value="&lt;span style=&quot;background-color: rgb(255, 255, 255);&quot;&gt;Netzzugang&lt;/span&gt;&lt;div&gt;&lt;span style=&quot;background-color: rgb(255, 255, 255);&quot;&gt;NAT-Server&lt;/span&gt;&lt;/div&gt;&lt;div&gt;&lt;span style=&quot;background-color: rgb(255, 255, 255);&quot;&gt;90.187.47.113&lt;/span&gt;&lt;/div&gt;" style="sketch=0;points=[[0.5,0,0],[1,0.5,0],[0.5,1,0],[0,0.5,0],[0.145,0.145,0],[0.8555,0.145,0],[0.855,0.8555,0],[0.145,0.855,0]];verticalLabelPosition=bottom;html=1;verticalAlign=top;aspect=fixed;align=center;pointerEvents=1;shape=mxgraph.cisco19.rect;prIcon=router;fillColor=#FAFAFA;strokeColor=#005073;" vertex="1" parent="1">
          <mxGeometry x="265" y="254" width="50" height="50" as="geometry" />
        </mxCell>
        <mxCell id="ZTARkKmLhcdW2PI3qZX4-33" style="edgeStyle=orthogonalEdgeStyle;rounded=0;orthogonalLoop=1;jettySize=auto;html=1;exitX=1;exitY=0.5;exitDx=0;exitDy=0;exitPerimeter=0;endArrow=none;endFill=0;curved=1;" edge="1" parent="1" source="ZTARkKmLhcdW2PI3qZX4-18" target="ZTARkKmLhcdW2PI3qZX4-13">
          <mxGeometry relative="1" as="geometry" />
        </mxCell>
        <mxCell id="ZTARkKmLhcdW2PI3qZX4-18" value="94.134.198.214" style="sketch=0;points=[[0.5,0,0],[1,0.5,0],[0.5,1,0],[0,0.5,0],[0.145,0.145,0],[0.8555,0.145,0],[0.855,0.8555,0],[0.145,0.855,0]];verticalLabelPosition=bottom;html=1;verticalAlign=top;aspect=fixed;align=center;pointerEvents=1;shape=mxgraph.cisco19.rect;prIcon=router;fillColor=#FAFAFA;strokeColor=#005073;" vertex="1" parent="1">
          <mxGeometry x="510" y="248.13" width="50" height="50" as="geometry" />
        </mxCell>
        <mxCell id="ZTARkKmLhcdW2PI3qZX4-19" value="" style="sketch=0;points=[[0.5,0,0],[1,0.5,0],[0.5,1,0],[0,0.5,0],[0.145,0.145,0],[0.8555,0.145,0],[0.855,0.8555,0],[0.145,0.855,0]];verticalLabelPosition=bottom;html=1;verticalAlign=top;aspect=fixed;align=center;pointerEvents=1;shape=mxgraph.cisco19.rect;prIcon=router;fillColor=#FAFAFA;strokeColor=#005073;" vertex="1" parent="1">
          <mxGeometry x="440" y="269" width="16" height="16" as="geometry" />
        </mxCell>
        <mxCell id="ZTARkKmLhcdW2PI3qZX4-20" value="" style="sketch=0;points=[[0.5,0,0],[1,0.5,0],[0.5,1,0],[0,0.5,0],[0.145,0.145,0],[0.8555,0.145,0],[0.855,0.8555,0],[0.145,0.855,0]];verticalLabelPosition=bottom;html=1;verticalAlign=top;aspect=fixed;align=center;pointerEvents=1;shape=mxgraph.cisco19.rect;prIcon=router;fillColor=#FAFAFA;strokeColor=#005073;" vertex="1" parent="1">
          <mxGeometry x="480" y="269" width="16" height="16" as="geometry" />
        </mxCell>
        <mxCell id="ZTARkKmLhcdW2PI3qZX4-24" value="&lt;div&gt;&lt;span style=&quot;background-color: rgb(255, 255, 255);&quot;&gt;90.187.47.114&lt;/span&gt;&lt;/div&gt;" style="sketch=0;points=[[0.5,0,0],[1,0.5,0],[0.5,1,0],[0,0.5,0],[0.145,0.145,0],[0.8555,0.145,0],[0.855,0.8555,0],[0.145,0.855,0]];verticalLabelPosition=bottom;html=1;verticalAlign=top;aspect=fixed;align=center;pointerEvents=1;shape=mxgraph.cisco19.rect;prIcon=router;fillColor=#FAFAFA;strokeColor=#005073;" vertex="1" parent="1">
          <mxGeometry x="360" y="254" width="50" height="50" as="geometry" />
        </mxCell>
        <mxCell id="ZTARkKmLhcdW2PI3qZX4-25" value="private IP-Adressen" style="html=1;shadow=0;dashed=0;align=center;verticalAlign=middle;shape=mxgraph.arrows2.twoWayArrow;dy=0.65;dx=22;" vertex="1" parent="1">
          <mxGeometry y="400" width="290" height="60" as="geometry" />
        </mxCell>
        <mxCell id="ZTARkKmLhcdW2PI3qZX4-26" value="private IP-Adressen" style="html=1;shadow=0;dashed=0;align=center;verticalAlign=middle;shape=mxgraph.arrows2.twoWayArrow;dy=0.65;dx=22;" vertex="1" parent="1">
          <mxGeometry x="630" y="400" width="210" height="60" as="geometry" />
        </mxCell>
        <mxCell id="ZTARkKmLhcdW2PI3qZX4-27" value="Ã¶ffentliche IP-Adressen" style="html=1;shadow=0;dashed=0;align=center;verticalAlign=middle;shape=mxgraph.arrows2.twoWayArrow;dy=0.65;dx=22;" vertex="1" parent="1">
          <mxGeometry x="290" y="400" width="340" height="60" as="geometry" />
        </mxCell>
        <mxCell id="ZTARkKmLhcdW2PI3qZX4-28" style="edgeStyle=orthogonalEdgeStyle;rounded=0;orthogonalLoop=1;jettySize=auto;html=1;exitX=1;exitY=0.5;exitDx=0;exitDy=0;exitPerimeter=0;entryX=0;entryY=0.5;entryDx=0;entryDy=0;entryPerimeter=0;endArrow=none;endFill=0;curved=1;" edge="1" parent="1" source="ZTARkKmLhcdW2PI3qZX4-15" target="ZTARkKmLhcdW2PI3qZX4-16">
          <mxGeometry relative="1" as="geometry" />
        </mxCell>
        <mxCell id="ZTARkKmLhcdW2PI3qZX4-29" style="edgeStyle=orthogonalEdgeStyle;rounded=0;orthogonalLoop=1;jettySize=auto;html=1;exitX=1;exitY=0.5;exitDx=0;exitDy=0;exitPerimeter=0;entryX=0;entryY=0.5;entryDx=0;entryDy=0;entryPerimeter=0;endArrow=none;endFill=0;curved=1;" edge="1" parent="1" source="ZTARkKmLhcdW2PI3qZX4-16" target="ZTARkKmLhcdW2PI3qZX4-24">
          <mxGeometry relative="1" as="geometry" />
        </mxCell>
        <mxCell id="ZTARkKmLhcdW2PI3qZX4-30" style="edgeStyle=orthogonalEdgeStyle;rounded=0;orthogonalLoop=1;jettySize=auto;html=1;exitX=1;exitY=0.5;exitDx=0;exitDy=0;exitPerimeter=0;entryX=0;entryY=0.5;entryDx=0;entryDy=0;entryPerimeter=0;endArrow=none;endFill=0;curved=1;" edge="1" parent="1" source="ZTARkKmLhcdW2PI3qZX4-24" target="ZTARkKmLhcdW2PI3qZX4-19">
          <mxGeometry relative="1" as="geometry" />
        </mxCell>
        <mxCell id="ZTARkKmLhcdW2PI3qZX4-31" style="edgeStyle=orthogonalEdgeStyle;rounded=0;orthogonalLoop=1;jettySize=auto;html=1;exitX=1;exitY=0.5;exitDx=0;exitDy=0;exitPerimeter=0;entryX=0;entryY=0.5;entryDx=0;entryDy=0;entryPerimeter=0;endArrow=none;endFill=0;curved=1;" edge="1" parent="1" source="ZTARkKmLhcdW2PI3qZX4-19" target="ZTARkKmLhcdW2PI3qZX4-20">
          <mxGeometry relative="1" as="geometry" />
        </mxCell>
        <mxCell id="ZTARkKmLhcdW2PI3qZX4-32" style="edgeStyle=orthogonalEdgeStyle;rounded=0;orthogonalLoop=1;jettySize=auto;html=1;exitX=1;exitY=0.5;exitDx=0;exitDy=0;exitPerimeter=0;entryX=0;entryY=0.5;entryDx=0;entryDy=0;entryPerimeter=0;endArrow=none;endFill=0;curved=1;" edge="1" parent="1" source="ZTARkKmLhcdW2PI3qZX4-20" target="ZTARkKmLhcdW2PI3qZX4-18">
          <mxGeometry relative="1" as="geometry" />
        </mxCell>
        <mxCell id="ZTARkKmLhcdW2PI3qZX4-36" value="VPN-Tunnel End-To-Site-VPN" style="html=1;shadow=0;dashed=0;align=center;verticalAlign=middle;shape=mxgraph.arrows2.sharpArrow;dy1=0.67;dx1=18;dx2=18;notch=0;fillColor=none;strokeColor=#808080;fontColor=#999999;" vertex="1" parent="1">
          <mxGeometry x="170" y="340" width="460" height="60" as="geometry" />
        </mxCell>
      </root>
    </mxGraphModel>
  </diagram>
</mxfile>
